# xmcd CD database file
#
# Track frame offsets:
#	150
#	19584
#	34287
#	53330
#	66854
#	84376
#	98430
#	117095
#	133324
#	146577
#	158233
#	175408
#	191014
#
# Disc length: 2758 seconds
#
# Revision: 0
# Processed by: cddbd v1.5.2PL0 Copyright (c) Steve Scherf et al.
# Submitted via: CDex 1.96
#
DISCID=a90ac40d
DTITLE=Jan Preston - Play It Again Jan
DYEAR=1917
DGENRE=Blues
TTITLE0=Blues And The Boogie
TTITLE1=I Was Young Once
TTITLE2=Gold Coast Boogie
TTITLE3=Queen Of Cash
TTITLE4=Your Own Life
TTITLE5=Lazy Boogie
TTITLE6=Wild Days
TTITLE7=Mr Mogo Man
TTITLE8=Scared Of The Dark
TTITLE9=Jans's Rag
TTITLE10=Wild Women
TTITLE11=Pumpin Paul
TTITLE12=The Sun Shines
EXTD=YEAR: 1917
EXTT0=
EXTT1=
EXTT2=
EXTT3=
EXTT4=
EXTT5=
EXTT6=
EXTT7=
EXTT8=
EXTT9=
EXTT10=
EXTT11=
EXTT12=
PLAYORDER=
